<svg width="60" height="70" viewBox="0 0 60 70" fill="none" xmlns="http://www.w3.org/2000/svg">
<path d="M16.4971 1.25722C16.8008 0.497902 17.5363 0 18.3541 0H41.6459C42.4637 0 43.1992 0.497903 43.5029 1.25722L44.4971 3.74278C44.8008 4.5021 45.5363 5 46.3541 5H58C59.1046 5 60 5.89543 60 7V13C60 14.1046 59.1046 15 58 15H2C0.895431 15 0 14.1046 0 13V7C0 5.89543 0.89543 5 2 5H13.6459C14.4637 5 15.1992 4.5021 15.5029 3.74278L16.4971 1.25722Z" fill="#323232"/>
<path d="M10 22C10 20.8954 10.8954 20 12 20H48C49.1046 20 50 20.8954 50 22V65C50 67.7614 47.7614 70 45 70H15C12.2386 70 10 67.7614 10 65V22Z" fill="#323232"/>
</svg>
